# xmcd CD database file
# Copyright (C) 1993-1998 Ti Kan
# 
# Track frame offsets:
#     150
#     14792
#     45612
#     76287
#     90487
#     101990
#     116717
#     129382
#     148900
#     203025
#     214950
# 
# Disc length: 3060 seconds
# 
# Revision: 1
# Processed by: cddbd v1.4b41PL1 Copyright (c) Steve Scherf et al.
# Submitted via: DiscPlay 4.0.4
# 
DISCID=a20bf20b
DTITLE=The Yardbirds - Live In USA1968 (Bootleg)
DYEAR=1900
DGENRE=
TTITLE0=The Train Kept A Rollin'
TTITLE1=Your Better Man Than I
TTITLE2=Dazed And Confused
TTITLE3=My Baby
TTITLE4=Over Under Sideways Down
TTITLE5=Drinking Muddy Water
TTITLE6=Shapes Of Things
TTITLE7=White Summer
TTITLE8=I'm A Man
TTITLE9=My Baby
TTITLE10=I Wish You Would
EXTD=Living Legend Records\nLLR CD 004\n\nTracks 1-9: Anderson Theatre, New 
EXTD=York, 3/30/68\nTrack 10: Stockholm 1967\nTrack 11: Paris 1965
EXTT0=
EXTT1=
EXTT2=
EXTT3=
EXTT4=
EXTT5=
EXTT6=
EXTT7=
EXTT8=
EXTT9=
EXTT10=
PLAYORDER=
